<svg id="Layer_1" data-name="Layer 1" xmlns="http://www.w3.org/2000/svg" viewBox="0 0 696 696"><defs><style>.cls-1{fill:#fefefe;}.cls-2{fill:#fefe00;}.cls-3{fill:#00fefe;}.cls-4{fill:#fd0000;}.cls-5{fill:#0000fd;}.cls-6{fill:#00fe01;}.cls-7{fill:#fe00fd;}.cls-8{fill:#dadada;}.cls-9{fill:#b5b5b5;}.cls-10{fill:#919191;}.cls-11{fill:#6d6d6d;}.cls-12{fill:#494949;}.cls-13{fill:#242424;}</style></defs><title>Test pattern</title><path class="cls-1" d="M87,696c-28.13,0-56.25,0-84.38-.15-.88,0-2.52-2.18-2.52-3.35Q-.08,348,.08,3.5C.08,2.33,1.72.15,2.6.15,30.73,0,58.85,0,87,0c1.26,1.67,1.45,3.8,1.48,6s0,4.66,0,7q0,257.22,0,514.44a70.59,70.59,0,0,1-.25,8.48c.18,2,.26,4,.26,6q0,72.57,0,145.14C88.47,690.13,88.85,693.41,87,696Z"/><path d="M609,0c28.13,0,56.25,0,84.38.15.88,0,2.52,2.18,2.52,3.35q.17,344.51,0,689c0,1.17-1.64,3.35-2.52,3.35-28.13.18-56.25.15-84.38.15-1.47-2-1.49-4.48-1.49-7q0-74.28,0-148.54c0-1.5.16-3,.26-4.47a62.28,62.28,0,0,1-.26-7q0-259.27,0-518.54C607.54,6.92,606.89,3.09,609,0Z"/><path class="cls-2" d="M87.07,535.76,87,0h87a9.25,9.25,0,0,1,1.47,5.51c0,1.66,0,3.33,0,5q0,257.48,0,515c0,3.61.55,7.39-1.24,10.66C172.72,538,170.82,538,169,538q-38.37.06-76.73,0C90.34,538,88.43,538,87.07,535.76Z"/><path class="cls-3" d="M174,535.85Q174,267.94,174,0h87a9.26,9.26,0,0,1,1.48,5.51c0,1.49,0,3,0,4.49q0,257.94,0,515.89c0,3.44.48,7.05-1.2,10.17-1.5,1.89-3.41,1.9-5.28,1.91q-38.43.06-76.86,0c-1.63,0-3.27,0-4.69-1.34Z"/><path class="cls-4" d="M435,0h87a8.66,8.66,0,0,1,1.45,5c.06,1.49,0,3,0,4.49q0,258.44,0,516.87c0,3.29.41,6.72-1.19,9.68C520.81,538,518.9,538,517,538q-38.58.06-77.17,0a7.35,7.35,0,0,1-4.39-1,3.77,3.77,0,0,1-1.11-1.36c-.95-2.29-.85-4.82-.85-7.31q0-260.16,0-520.32C433.51,5.19,433.32,2.28,435,0Z"/><path class="cls-5" d="M522,535.79V0h87l-.09,535.75c-1.35,2.22-3.27,2.21-5.14,2.21q-38.34.07-76.67,0a7.41,7.41,0,0,1-4-.83A3.18,3.18,0,0,1,522,535.79Z"/><path class="cls-6" d="M261,535.73,261,0h86.26c1.55,2.24,1.09,5,1.09,7.63q0,63,0,125.92,0,196.86,0,393.72c0,3,.49,6-.72,8.82-1.5,1.91-3.41,1.87-5.27,1.87q-38.16.07-76.31,0a7.24,7.24,0,0,1-4-.85A3.14,3.14,0,0,1,261,535.73Z"/><path class="cls-7" d="M435,0l0,535.67c-1.13,2.33-3,2.28-4.69,2.28q-38.55.12-77.11,0c-1.63,0-3.26-.11-4.6-1.63-.9-1.82-.57-3.88-.57-5.84q0-262.11,0-524.22c0-2.12-.38-4.37.73-6.28Z"/><path class="cls-8" d="M87.07,535.76l86.91.09.07.08c1.4,2,1.43,4.52,1.43,7q0,73,0,146.06c0,2.5,0,5-1.49,7H87Z"/><path class="cls-9" d="M174,696l.06-160.07,86.9-.2.15.38c1.36,1.84,1.38,4.2,1.38,6.54q0,73.17,0,146.35c0,2.51,0,5-1.49,7Z"/><path class="cls-10" d="M261,696q.06-79.95.11-159.89l86.29-.24a1.76,1.76,0,0,1,1.21,1c.94,1.93.88,4.12.89,6.28q0,72.64,0,145.3c0,2.66.09,5.38-1.49,7.5Z"/><path class="cls-11" d="M348,696V536l.27-.32.33.21,86.38-.2a.56.56,0,0,1,.18.48c1.33,1.87,1.32,4.23,1.32,6.57q0,73.14,0,146.28c0,2.51,0,5-1.49,7Z"/><path class="cls-12" d="M435,696q.08-79.93.16-159.85l86.84-.36.18.06c1.27,2.09,1.32,4.58,1.32,7.1q0,72.78,0,145.57c0,2.66.09,5.37-1.49,7.48Z"/><path class="cls-13" d="M522,696l.18-160.15,86.74-.1L609,696Z"/><path class="cls-11" d="M348,536a2.25,2.25,0,0,1-.62-.11Q347.33,267.94,347.25,0H348c.7,1.73.35,3.6.35,5.4q0,262.62,0,525.23c0,1.8.36,3.67-.37,5.39Z"/><path class="cls-10" d="M348,536q0-268,0-536h.75c-.09,35-.25,70-.25,105q0,215.46.11,430.92A3.4,3.4,0,0,1,348,536Z"/></svg>