<?xml version="1.0" encoding="utf-8"?>
<!-- Generator: Adobe Illustrator 24.0.1, SVG Export Plug-In . SVG Version: 6.00 Build 0)  -->
<svg version="1.1" id="Expanded" xmlns="http://www.w3.org/2000/svg" xmlns:xlink="http://www.w3.org/1999/xlink" x="0px" y="0px"
	 viewBox="0 0 1920 176.5" style="enable-background:new 0 0 1920 176.5;" xml:space="preserve">
<style type="text/css">
	.st0{fill:#666666;}
</style>
<title>Artboard 1</title>
<path class="st0" d="M107.4,6.1v64.6h-2.2L8.9,18.8v49.7H0V3.9h2.2L98.5,57V6.1H107.4z M103.1,144.8c-7.8,10.6-15.9,18.5-24.3,23.8
	c-7.8,5.1-16.9,7.9-26.2,8c-8.2,0-16.1-2.7-23.9-8.1c-7.8-5.4-15.5-13.3-23.3-23.7l7-5.4c6.8,9.3,13.5,16.3,20.1,21.1
	c6.7,4.8,13.4,7.2,20,7.2c8,0,15.8-2.4,22.5-6.7c7.2-4.5,14.1-11.7,20.9-21.5L103.1,144.8z M38.1,72.4v33.4h-8.9V72.4H38.1z
	 M57,115.8v33.4h-8.9v-33.4H57z M75.9,72.4v33.4H67V72.4H75.9z"/>
<path class="st0" d="M214.1,170.4h-8.9V6.1h8.9V170.4z"/>
<path class="st0" d="M409.4,6.1v49.5H404c-4.9-9.6-10.6-16.9-17-21.7c-6.3-4.8-14.1-7.3-22-7.2c-5.7,0-11.2,1.8-15.9,5.1
	c-5.3,3.7-9.8,8.5-13.2,14.1c-4,6.6-7.1,13.8-9.1,21.3c-2.3,8.7-3.5,17.7-3.4,26.8c-0.1,10.8,0.9,21.6,3.2,32.2
	c2.1,9.2,5.1,16.9,9,23c3.5,5.7,8.4,10.5,14.3,13.8c5.8,3.1,12.4,4.7,19,4.6c8.7-0.2,17.1-3.7,23.4-9.7c6.4-6,11.6-14.5,15.9-25.6
	l8.4,3.7c-4.7,13.1-10.9,23.2-18.6,30.1c-7.7,6.9-17.1,10.4-28.2,10.4c-9.1,0-17.1-1.7-24-5.2c-7-3.6-12.9-8.8-17.3-15.3
	c-4.7-6.7-8.1-14.9-10.4-24.8c-2.4-11.1-3.6-22.4-3.5-33.8c-0.1-11,1.1-22.1,3.5-32.8c2-8.9,5.4-17.4,10.2-25.1
	c4.1-6.6,9.7-12,16.3-16c6.7-3.8,14.3-5.8,22-5.6c6.3,0,12.6,1.5,18.1,4.5c5.9,3.2,11.2,7.3,15.8,12.1V6.1H409.4z M387.9,97
	c0,3.6-0.5,7.2-1.5,10.7c-0.9,3.3-2.3,6.5-4.3,9.3c-1.8,2.7-4.3,5-7.1,6.6c-6.1,3.3-13.5,3.3-19.6,0c-2.8-1.7-5.2-3.9-7.1-6.6
	c-2-2.8-3.4-6-4.3-9.3c-1.9-7.1-1.9-14.6,0-21.7c0.9-3.3,2.3-6.5,4.3-9.4c1.9-2.7,4.3-4.9,7.1-6.6c6.1-3.3,13.5-3.3,19.6,0
	c2.8,1.7,5.2,3.9,7.1,6.6c1.9,2.9,3.4,6.1,4.3,9.4C387.5,89.7,387.9,93.3,387.9,97z M379,97c0-2.6-0.3-5.1-0.8-7.6
	c-0.4-2.3-1.3-4.5-2.4-6.6c-1-1.8-2.5-3.4-4.2-4.6c-3.9-2.3-8.7-2.3-12.6,0c-1.8,1.2-3.2,2.7-4.2,4.6c-1.1,2-1.9,4.2-2.4,6.5
	c-1,5-1,10.2,0,15.2c0.5,2.3,1.3,4.5,2.4,6.5c1,1.8,2.5,3.4,4.2,4.6c3.9,2.3,8.7,2.3,12.6,0c1.8-1.2,3.2-2.7,4.2-4.6
	c1.1-2,1.9-4.2,2.4-6.5C378.7,102,379,99.5,379,97z"/>
<path class="st0" d="M575,16.1c-5,4.8-9.7,9.9-14.1,15.4c-3.5,4.4-6.6,9-9.3,13.9c-2.3,4.1-4,8.4-5.2,12.9
	c-1.1,4.1-1.6,8.3-1.6,12.5c0,4.2,0.6,8.5,1.6,12.6c1.2,4.5,3,8.9,5.2,13c2.7,4.9,5.8,9.6,9.3,13.9c4.4,5.4,9.1,10.6,14.1,15.4
	l-5.5,6.7c-5.5-4.9-10.6-10.3-15.2-16c-3.8-4.7-7.2-9.7-10.1-14.9c-2.4-4.4-4.4-9-5.9-13.8c-1.3-4.1-2.1-8.2-2.4-12.5h-19.6v78.8
	h-2.2l-37.3-31.7v48h-8.9V105h2.2l37.3,32.2V6.1h8.9v60.2h19.6c0.4-4.2,1.2-8.3,2.4-12.3c1.5-4.7,3.5-9.3,5.9-13.7
	c2.9-5.3,6.3-10.3,10.1-14.9c4.6-5.7,9.7-11.1,15.2-16L575,16.1z"/>
<path class="st0" d="M828.8,119.8H782v15.9h46.8v8.9H782v25.7h-8.9v-25.7h-46.8v-8.9h46.8v-15.9h-46.8v-8.9h46.8V92.6
	c-4.8-0.3-9.6-1-14.4-2.1c-4.1-0.9-8.1-2.1-12-3.5c-3.7-1.3-7.2-2.8-10.5-4.3c-3.3-1.5-6.5-3-9.7-4.3l3.7-8.7
	c3.6,1.9,7.2,3.7,11,5.2c4.2,1.7,8.5,3.3,12.9,4.6c4.5,1.3,9.1,2.4,13.8,3.2c4.6,0.8,9.2,1.2,13.9,1.2c4.4,0,8.8-0.4,13.1-1.2
	c3.6-0.7,7-1.8,10.3-3.4c2.6-1.2,4.9-3,6.7-5.1c1.5-1.7,2.4-4,2.4-6.3c0-3-1.6-5.7-4.7-8s-7.6-4.1-13.3-5.3l-41.2-8
	c-3.1-0.7-6.2-1.7-9.1-2.8c-2.5-1-4.8-2.3-6.8-4.1c-1.9-1.6-3.3-3.7-4.2-6c-1-2.7-1.5-5.7-1.5-8.6c-0.1-3.8,1-7.6,3.1-10.8
	c2.2-3.2,5-5.9,8.4-7.8c4-2.3,8.3-3.9,12.8-4.8C763,0.6,768.4,0,773.8,0c4.8,0,9.5,0.6,14.1,1.6c4.5,1,8.9,2.3,13.3,3.7
	c4.1,1.4,7.8,2.8,11,4.2c3.2,1.4,5.6,2.5,7.2,3.2l-3.7,8.1c-1.7-0.9-4.1-2-7.2-3.4c-3.1-1.4-6.6-2.7-10.4-4c-4-1.3-8.1-2.4-12.3-3.3
	c-4.2-0.9-8.5-1.4-12.8-1.4c-4.1,0-8.1,0.3-12.1,0.9c-3.4,0.5-6.6,1.4-9.7,2.8c-2.5,1.1-4.8,2.8-6.5,5c-1.6,2.1-2.4,4.7-2.3,7.4
	c0,1.6,0.3,3.2,0.9,4.6c0.6,1.4,1.6,2.5,2.8,3.4c1.5,1.1,3.2,1.9,4.9,2.5c2,0.7,4.3,1.4,7,2.1l43.7,9.1c7.3,1.6,12.8,4.3,16.3,8.2
	c3.4,3.5,5.3,8.1,5.3,13c0.1,4-1.1,8-3.4,11.3c-2.4,3.2-5.5,5.9-9.1,7.7c-4.1,2.1-8.6,3.6-13.1,4.5c-5.2,1-10.4,1.5-15.7,1.5v18
	h46.8L828.8,119.8z"/>
<path class="st0" d="M990.7,92.6h-90c0.7,8.1,3,16,6.7,23.2c4,7.7,9.2,14.7,15.5,20.8c6.9,6.7,14.7,12.6,23.1,17.4
	c9.3,5.3,19.1,9.6,29.2,12.9l-3.5,9.6c-11.4-3.8-22.3-8.9-32.6-15.1c-9.3-5.6-17.8-12.5-25.3-20.4c-6.8-7.2-12.4-15.5-16.4-24.6
	c-7.7-18-7.7-38.3,0-56.2c4-9.1,9.5-17.4,16.4-24.6c7.5-7.9,16-14.7,25.3-20.3C949.4,9,960.4,3.9,971.8,0l3.5,9.6
	c-10.2,3.3-19.9,7.6-29.2,12.9c-8.4,4.8-16.1,10.6-23,17.3c-6.2,6.1-11.5,13.1-15.5,20.8c-3.8,7.2-6,15.1-6.7,23.2h90L990.7,92.6z
	 M957.9,37v33.4H949V37H957.9z M957.9,106v33.4H949V106H957.9z"/>
<path class="st0" d="M1153.7,30.4l-3.7,8.9l-35.5-23v154.1c-12.5,0.1-25-1.2-37.1-3.9c-11-2.6-20.4-6.3-28.2-11.1
	c-7.3-4.3-13.5-10.3-18-17.4c-4.2-6.9-6.4-14.9-6.3-22.9c-0.1-8.2,1.9-16.3,5.8-23.6c4-7.3,9.6-13.7,16.4-18.7
	c7.7-5.6,16.3-9.9,25.4-12.7c10.8-3.3,21.9-5.3,33.1-5.9V0h2.2L1153.7,30.4z M1033.8,113.6c0,4.5,0.8,9,2.4,13.3
	c1.7,4.1,4.1,7.9,7.1,11.2c3.3,3.6,7,6.7,11.1,9.2c4.6,2.8,9.6,5.1,14.8,6.9V71.4c-5.2,2-10.2,4.5-14.9,7.6c-4.2,2.7-7.9,6-11.1,9.7
	c-3,3.5-5.3,7.4-7,11.6C1034.5,104.6,1033.7,109.1,1033.8,113.6L1033.8,113.6z M1059.2,88.2v18.9h-8.9V88.2H1059.2z M1059.2,120.2
	v18.9h-8.9v-19L1059.2,120.2z M1105.6,64.3c-9.3,0.3-18.5,1.8-27.5,4.2v88.3c4.4,1.1,8.8,1.9,13.2,2.5c4.6,0.6,9.3,1.1,14.3,1.3
	V64.3z M1097,88.2v18.9h-8.9V88.2H1097z M1097,120.2v18.9h-8.9v-19L1097,120.2z"/>
<path class="st0" d="M1249.7,170.4h-8.9V6.1h8.9V170.4z"/>
<path class="st0" d="M1460.6,165.8l-50,7.9c-3.6,0.6-7.6,1.2-11.8,1.8c-3.8,0.6-7.7,1-11.5,1c-1.8-0.1-3.6-0.3-5.4-0.7
	c-2.5-0.6-4.9-1.6-7-3.1c-2.5-1.9-4.6-4.3-6.1-7.1c-1.7-3.1-2.6-7.4-2.6-12.8V6.1h8.9v146.7c-0.1,2.3,0.3,4.6,1.2,6.7
	c0.7,1.7,1.7,3.3,3,4.6c1.1,1.2,2.5,2.1,4,2.7c1.3,0.5,2.7,0.8,4.1,0.8c3.7,0,7.5-0.3,11.2-0.9c3.9-0.6,7.4-1.1,10.6-1.7l51.4-8.1
	L1460.6,165.8z"/>
<path class="st0" d="M1616.5,165.8l-50,7.9c-3.6,0.6-7.5,1.2-11.7,1.8c-3.8,0.6-7.7,1-11.5,1c-1.8-0.1-3.6-0.3-5.4-0.7
	c-2.5-0.6-4.9-1.6-7-3.1c-2.5-1.9-4.6-4.3-6.1-7.1c-1.7-3.1-2.6-7.4-2.6-12.8V6.1h8.9v146.7c-0.1,2.3,0.3,4.6,1.2,6.7
	c0.7,1.7,1.7,3.3,3,4.6c1.1,1.2,2.5,2.1,4,2.7c1.3,0.5,2.7,0.8,4.1,0.8c3.7,0,7.5-0.3,11.2-0.9c3.9-0.6,7.4-1.1,10.6-1.7l51.4-8.1
	L1616.5,165.8z"/>
<path class="st0" d="M1751.3,88.4v5.9l12.2,7.6V28.3h8.9v120.3h-8.9v-36.3l-12.5-7.8c-0.2,10.9-0.9,21.8-2.2,32.7
	c-1.2,9.1-2.9,16.5-5.2,22.4c-2.3,5.8-5.1,10.1-8.5,12.9c-7.6,5.8-18.2,5.4-25.3-0.9c-3.6-3.3-6.5-8.6-8.7-15.6
	c-2.2-7.1-3.8-16.2-4.8-27.3c-1-11.1-1.5-24.5-1.5-40.1c0-6.7,0.1-12.9,0.3-18.7l-13.3-8.2v71.2h-2.2l-26.3-21.3l5-7l14.6,12.1V47
	h2.2l20.3,12.7c0.4-9,1.4-18,2.9-26.9c1-6.4,2.8-12.6,5.3-18.5c2.2-4.9,4.9-8.4,8.1-10.8c3.3-2.3,7.2-3.5,11.2-3.5
	c4.9-0.1,9.6,1.7,13.1,5.1c3.6,3.4,6.5,8.6,8.7,15.8c2.2,7.1,3.9,16.3,4.9,27.5C1750.8,59.4,1751.3,72.8,1751.3,88.4z M1703.7,88.4
	c0,12.8,0.3,24.2,1,34c0.5,8.3,1.6,16.6,3.4,24.8c1.6,6.7,3.6,11.7,6,15.2s5.4,5.2,8.9,5.2c3.3,0,6.1-1.5,8.4-4.4
	c2.3-3,4.3-7.3,5.8-13.1c1.8-7.1,2.9-14.2,3.5-21.5c0.8-8.5,1.3-18.4,1.5-29.5l-38.5-23.8c-0.1,2.2-0.1,4.3-0.1,6.6L1703.7,88.4z
	 M1742.4,88.4c0-11.1-0.4-21.5-1.1-31.2c-0.5-8.5-1.7-16.9-3.4-25.2c-1.6-7.1-3.6-12.8-6-16.9s-5.4-6.2-8.9-6.2
	c-2.9,0-5.4,1.4-7.6,4.2c-2.5,3.5-4.4,7.5-5.5,11.6c-1.7,5.8-2.9,11.8-3.7,17.8c-0.9,6.9-1.6,14.4-2.1,22.5l38.2,23.7L1742.4,88.4z"
	/>
<path class="st0" d="M1920,119.8h-46.8v15.9h46.8v8.9h-46.8v25.7h-8.9v-25.7h-46.8v-8.9h46.8v-15.9h-46.8v-8.9h46.8V92.6
	c-4.8-0.3-9.6-1-14.3-2.1c-4.1-0.9-8.1-2.1-12-3.5c-3.7-1.3-7.2-2.8-10.5-4.3c-3.3-1.5-6.5-3-9.7-4.3l3.7-8.7
	c3.6,1.9,7.2,3.7,11,5.2c4.2,1.8,8.5,3.3,12.9,4.6c4.5,1.3,9.1,2.4,13.8,3.2c4.6,0.8,9.2,1.2,13.8,1.2c4.4,0,8.8-0.4,13.1-1.2
	c3.6-0.7,7-1.8,10.3-3.4c2.6-1.2,4.9-3,6.7-5.1c1.5-1.7,2.4-4,2.4-6.3c0-3-1.6-5.7-4.7-8c-3.2-2.3-7.6-4.1-13.3-5.3l-41.2-8
	c-3.1-0.7-6.2-1.7-9.1-2.8c-2.5-1-4.8-2.3-6.8-4.1c-1.9-1.6-3.3-3.7-4.2-6c-1-2.7-1.5-5.7-1.4-8.6c-0.1-3.8,1-7.6,3.1-10.8
	c2.2-3.2,5-5.9,8.4-7.8c4-2.3,8.3-3.9,12.8-4.8c5.3-1.1,10.7-1.7,16.1-1.7c4.8,0,9.5,0.6,14.2,1.6c4.5,1,8.9,2.3,13.3,3.7
	c4.1,1.4,7.8,2.8,11,4.2c3.2,1.4,5.6,2.5,7.2,3.2l-3.7,8.1c-1.7-0.9-4.1-2-7.2-3.4c-3.1-1.4-6.6-2.7-10.4-4c-4-1.3-8.1-2.4-12.2-3.3
	c-4.2-0.9-8.5-1.4-12.8-1.4c-4.1,0-8.1,0.3-12.1,0.9c-3.4,0.5-6.6,1.4-9.7,2.8c-2.5,1.1-4.8,2.8-6.5,5c-1.6,2.1-2.4,4.7-2.3,7.4
	c0,1.6,0.3,3.2,0.9,4.6c0.6,1.4,1.6,2.5,2.8,3.4c1.5,1.1,3.2,1.9,4.9,2.5c2,0.7,4.3,1.4,7,2.1l43.7,9.1c7.3,1.6,12.8,4.3,16.3,8.2
	c3.4,3.5,5.3,8.1,5.3,13c0.1,4-1.1,8-3.5,11.3c-2.4,3.2-5.5,5.9-9.1,7.7c-4.1,2.1-8.6,3.7-13.1,4.5c-5.1,1-10.4,1.5-15.6,1.5v18
	h46.8V119.8z"/>
</svg>
