<svg id="Expanded" xmlns="http://www.w3.org/2000/svg" viewBox="0 0 1920 176.49"><defs><style>.cls-1{fill:#666;}</style></defs><title>Artboard 1</title><path class="cls-1" d="M107.45,6.12V70.71h-2.22L8.91,18.82V68.48H0V3.9H2.23L98.54,57V6.12Zm-4.34,138.63q-11.7,15.83-24.33,23.78a48.61,48.61,0,0,1-26.22,8q-12.26,0-23.89-8.07T5.34,144.75l7-5.45q10.13,13.92,20.15,21.1t20.05,7.18A41.54,41.54,0,0,0,75,160.84q10.76-6.74,20.88-21.54Zm-65-72.37v33.4H29.17V72.38ZM57,115.8v33.41H48.1V115.8ZM75.94,72.38v33.4H67V72.38Z"/><path class="cls-1" d="M214.12,170.36h-8.9V6.12h8.9Z"/><path class="cls-1" d="M409.43,6.12V55.67H404Q396.63,41.21,387,34a35.72,35.72,0,0,0-22-7.24,27.91,27.91,0,0,0-15.86,5.07,46.53,46.53,0,0,0-13.2,14.09,79.57,79.57,0,0,0-9.07,21.32A100.13,100.13,0,0,0,323.47,94a145.12,145.12,0,0,0,3.17,32.18q3.18,13.8,9,23A39.45,39.45,0,0,0,349.92,163a38.73,38.73,0,0,0,19,4.62,35.34,35.34,0,0,0,23.44-9.69q9.53-9,15.87-25.61l8.35,3.68q-7,19.71-18.6,30.12t-28.17,10.41q-13.69,0-24.05-5.23A46.31,46.31,0,0,1,328.43,156q-7-10-10.42-24.77a149.22,149.22,0,0,1-3.45-33.8,141.68,141.68,0,0,1,3.51-32.85,81,81,0,0,1,10.19-25.11,48.33,48.33,0,0,1,16.31-16,42.78,42.78,0,0,1,22-5.62,38,38,0,0,1,18.15,4.51,63.85,63.85,0,0,1,15.81,12.08V6.12ZM387.94,97a39.77,39.77,0,0,1-1.45,10.69,30.76,30.76,0,0,1-4.28,9.35,22.33,22.33,0,0,1-7.07,6.62,20.39,20.39,0,0,1-19.6,0,22.52,22.52,0,0,1-7.07-6.57,30,30,0,0,1-4.29-9.35,41.36,41.36,0,0,1,0-21.71,30.31,30.31,0,0,1,4.29-9.36,22.75,22.75,0,0,1,7.07-6.57,20.46,20.46,0,0,1,19.6,0,22.48,22.48,0,0,1,7.07,6.63,30.66,30.66,0,0,1,4.28,9.41A40.74,40.74,0,0,1,387.94,97ZM379,97a37.2,37.2,0,0,0-.78-7.63,22.38,22.38,0,0,0-2.39-6.57,13.37,13.37,0,0,0-4.23-4.57,12.36,12.36,0,0,0-12.58,0,13.18,13.18,0,0,0-4.23,4.57,22.42,22.42,0,0,0-2.4,6.51,37.17,37.17,0,0,0,0,15.15,22.42,22.42,0,0,0,2.4,6.51,13.09,13.09,0,0,0,4.23,4.57,12.36,12.36,0,0,0,12.58,0,13.28,13.28,0,0,0,4.23-4.57,22.52,22.52,0,0,0,2.39-6.46A35.56,35.56,0,0,0,379,97Z"/><path class="cls-1" d="M575,16.15a164.8,164.8,0,0,0-14.09,15.36,97.72,97.72,0,0,0-9.35,13.92,57.26,57.26,0,0,0-5.23,12.92,49.41,49.41,0,0,0-1.62,12.47,50.68,50.68,0,0,0,1.62,12.58,56.89,56.89,0,0,0,5.23,13,97.72,97.72,0,0,0,9.35,13.92A163.55,163.55,0,0,0,575,125.71l-5.46,6.68a141.76,141.76,0,0,1-15.2-16,101.8,101.8,0,0,1-10.07-14.93,74.74,74.74,0,0,1-5.91-13.75,57.58,57.58,0,0,1-2.44-12.47h-19.6v78.84H514.1l-37.3-31.74v48h-8.91V105h2.23l37.3,32.18V6.12h8.91V66.36h19.6a56.76,56.76,0,0,1,2.44-12.3,75.85,75.85,0,0,1,5.91-13.7,102.27,102.27,0,0,1,10.07-14.92,141.76,141.76,0,0,1,15.2-16Z"/><path class="cls-1" d="M828.77,119.81H782v15.92h46.76v8.91H782v25.72H773.1V144.64H726.33v-8.91H773.1V119.81H726.33V110.9H773.1V92.64a90.92,90.92,0,0,1-14.36-2.06,108,108,0,0,1-12-3.5q-5.57-2-10.47-4.29t-9.68-4.29l3.67-8.68a120.67,120.67,0,0,0,11,5.23,128.72,128.72,0,0,0,12.86,4.57,114.89,114.89,0,0,0,13.81,3.17A84.93,84.93,0,0,0,781.78,84a64.85,64.85,0,0,0,13.09-1.23,42.05,42.05,0,0,0,10.3-3.39,20,20,0,0,0,6.73-5.13,9.78,9.78,0,0,0,2.4-6.29q0-4.56-4.73-8t-13.31-5.35l-41.2-8a65.08,65.08,0,0,1-9.13-2.83,23.52,23.52,0,0,1-6.79-4.07,15.71,15.71,0,0,1-4.23-6,22.72,22.72,0,0,1-1.45-8.58,19.29,19.29,0,0,1,3.06-10.8,25.36,25.36,0,0,1,8.41-7.85,42.82,42.82,0,0,1,12.75-4.79A75.9,75.9,0,0,1,773.77,0a64.24,64.24,0,0,1,14.14,1.61,130.52,130.52,0,0,1,13.31,3.74q6.18,2.12,11,4.23c3.19,1.41,5.61,2.48,7.24,3.23l-3.67,8.12q-2.57-1.34-7.24-3.39c-3.12-1.38-6.59-2.69-10.41-4a119,119,0,0,0-12.25-3.28A60.74,60.74,0,0,0,773.1,8.91,77.49,77.49,0,0,0,761,9.8a36.51,36.51,0,0,0-9.74,2.84,17,17,0,0,0-6.51,5,11.83,11.83,0,0,0-2.34,7.4,10.88,10.88,0,0,0,.89,4.62,8.71,8.71,0,0,0,2.84,3.4,18.84,18.84,0,0,0,4.9,2.51q2.94,1.05,7,2.06l43.65,9.13q11,2.34,16.31,8.18a18.92,18.92,0,0,1,5.29,13,18.67,18.67,0,0,1-3.4,11.25,26,26,0,0,1-9.07,7.68,48.23,48.23,0,0,1-13.14,4.51A79,79,0,0,1,782,92.87v18h46.76Z"/><path class="cls-1" d="M990.68,92.64h-90a61.65,61.65,0,0,0,6.73,23.22,81.68,81.68,0,0,0,15.48,20.82A114.22,114.22,0,0,0,946,154.05a147.74,147.74,0,0,0,29.23,12.86l-3.45,9.58a162.56,162.56,0,0,1-32.63-15.14A121,121,0,0,1,913.85,141a86.06,86.06,0,0,1-16.37-24.6,71.18,71.18,0,0,1,0-56.24,86.06,86.06,0,0,1,16.37-24.6,120.67,120.67,0,0,1,25.27-20.32A166.75,166.75,0,0,1,971.75,0l3.45,9.58A155.18,155.18,0,0,0,946,22.49a112.6,112.6,0,0,0-23.05,17.32,82.11,82.11,0,0,0-15.48,20.76,61.25,61.25,0,0,0-6.73,23.17h90ZM957.94,37v33.4H949V37Zm0,69v33.41H949V106Z"/><path class="cls-1" d="M1153.69,30.4,1150,39.31l-35.52-23v154.1a162.22,162.22,0,0,1-37.14-3.89q-16.53-3.9-28.22-11.08a53.36,53.36,0,0,1-18-17.43,43,43,0,0,1-6.29-22.94,48.72,48.72,0,0,1,5.79-23.6A57.13,57.13,0,0,1,1047,72.82a86.29,86.29,0,0,1,25.44-12.69,134.64,134.64,0,0,1,33.13-5.9V0h2.23Zm-119.92,83.18a35.4,35.4,0,0,0,2.45,13.25,37.39,37.39,0,0,0,7.07,11.24,51.49,51.49,0,0,0,11.14,9.19,70.16,70.16,0,0,0,14.75,6.85V71.38A77.43,77.43,0,0,0,1054.26,79a52,52,0,0,0-11.14,9.74,40.53,40.53,0,0,0-7,11.64A36.73,36.73,0,0,0,1033.77,113.58Zm25.39-25.39v18.93h-8.91V88.19Zm0,32v18.93h-8.91V120.15Zm46.43-55.9a120.5,120.5,0,0,0-27.5,4.23v88.3a129.44,129.44,0,0,0,13.19,2.51q6.85.94,14.31,1.28ZM1097,88.19v18.93h-8.91V88.19Zm0,32v18.93h-8.91V120.15Z"/><path class="cls-1" d="M1249.68,170.36h-8.91V6.12h8.91Z"/><path class="cls-1" d="M1460.57,165.8l-50,7.91q-5.46.89-11.75,1.83a78.25,78.25,0,0,1-11.53,1,29,29,0,0,1-5.4-.72,19.24,19.24,0,0,1-7-3.12,20.49,20.49,0,0,1-6.06-7.13q-2.62-4.72-2.62-12.75V6.12h8.91V152.77a17.17,17.17,0,0,0,1.17,6.68,14.62,14.62,0,0,0,3,4.62,10.88,10.88,0,0,0,4,2.68,11.49,11.49,0,0,0,4.06.83,73.4,73.4,0,0,0,11.19-.89q5.85-.88,10.64-1.67l51.44-8.13Z"/><path class="cls-1" d="M1616.46,165.8l-50,7.91q-5.45.89-11.74,1.83a78.25,78.25,0,0,1-11.53,1,29,29,0,0,1-5.4-.72,19.17,19.17,0,0,1-7-3.12,20.49,20.49,0,0,1-6.06-7.13q-2.62-4.72-2.62-12.75V6.12h8.91V152.77a17.17,17.17,0,0,0,1.17,6.68,14.45,14.45,0,0,0,3,4.62,10.88,10.88,0,0,0,4,2.68,11.49,11.49,0,0,0,4.06.83,73.4,73.4,0,0,0,11.19-.89q5.85-.88,10.64-1.67l51.44-8.13Z"/><path class="cls-1" d="M1751.31,88.41v5.9l12.24,7.57V28.28h8.91V148.54h-8.91v-36.3l-12.47-7.79a314.3,314.3,0,0,1-2.22,32.68q-1.78,13.63-5.18,22.38t-8.52,12.86a19.9,19.9,0,0,1-25.33-.89q-5.4-5-8.74-15.65t-4.85-27.33q-1.5-16.71-1.5-40.09,0-10,.33-18.71l-13.25-8.24v71.16h-2.22l-26.28-21.27,5-7,14.59,12.14V47h2.22l20.27,12.69a231.46,231.46,0,0,1,2.89-26.94,77.89,77.89,0,0,1,5.35-18.54q3.33-7.29,8.13-10.75A18.72,18.72,0,0,1,1723,0a18.36,18.36,0,0,1,13.14,5.07q5.34,5.07,8.69,15.75t4.9,27.45Q1751.31,65,1751.31,88.41Zm-47.66,0q0,19.26,1,34a162.74,162.74,0,0,0,3.4,24.77q2.34,10,6,15.2t8.91,5.18q4.9,0,8.41-4.45t5.85-13.14a130.83,130.83,0,0,0,3.5-21.49q1.17-12.81,1.51-29.51l-38.53-23.83c-.08,2.16-.11,4.34-.11,6.57Zm38.75,0q0-16.69-1.06-31.23a181.34,181.34,0,0,0-3.4-25.22q-2.34-10.7-6-16.87T1723,8.91c-2.89,0-5.42,1.39-7.57,4.17a36.73,36.73,0,0,0-5.51,11.64,113.43,113.43,0,0,0-3.68,17.76q-1.38,10.31-2.06,22.55l38.2,23.72Z"/><path class="cls-1" d="M1920,119.81h-46.77v15.92H1920v8.91h-46.77v25.72h-8.9V144.64h-46.77v-8.91h46.77V119.81h-46.77V110.9h46.77V92.64A91.05,91.05,0,0,1,1850,90.58a108.44,108.44,0,0,1-12-3.5q-5.58-2-10.47-4.29t-9.69-4.29l3.68-8.68a119.41,119.41,0,0,0,11,5.23,127.84,127.84,0,0,0,12.86,4.57,114,114,0,0,0,13.81,3.17A84.75,84.75,0,0,0,1873,84a64.75,64.75,0,0,0,13.08-1.23,41.77,41.77,0,0,0,10.3-3.39,20.06,20.06,0,0,0,6.74-5.13,9.77,9.77,0,0,0,2.39-6.29q0-4.56-4.73-8t-13.3-5.35l-41.2-8a64.67,64.67,0,0,1-9.13-2.83,23.57,23.57,0,0,1-6.8-4.07,15.93,15.93,0,0,1-4.23-6,22.92,22.92,0,0,1-1.44-8.58,19.29,19.29,0,0,1,3.06-10.8,25.33,25.33,0,0,1,8.4-7.85,43,43,0,0,1,12.75-4.79A76,76,0,0,1,1865,0a64.33,64.33,0,0,1,14.15,1.61,131,131,0,0,1,13.3,3.74q6.18,2.12,11,4.23c3.19,1.41,5.6,2.48,7.24,3.23L1907,20.93q-2.57-1.34-7.24-3.39c-3.11-1.38-6.58-2.69-10.41-4a118.08,118.08,0,0,0-12.24-3.28,60.88,60.88,0,0,0-12.75-1.39,77.4,77.4,0,0,0-12.14.89,36.51,36.51,0,0,0-9.74,2.84,17.08,17.08,0,0,0-6.52,5,11.83,11.83,0,0,0-2.34,7.4,11,11,0,0,0,.89,4.62,8.8,8.8,0,0,0,2.84,3.4,19,19,0,0,0,4.9,2.51q3,1.05,7,2.06l43.65,9.13q11,2.34,16.31,8.18a18.88,18.88,0,0,1,5.29,13A18.66,18.66,0,0,1,1911,79.17a26,26,0,0,1-9.08,7.68,48,48,0,0,1-13.14,4.51,78.9,78.9,0,0,1-15.59,1.51v18H1920Z"/></svg>