<svg version="1.1" id="Layer_1" xmlns="http://www.w3.org/2000/svg" xmlns:xlink="http://www.w3.org/1999/xlink" x="0px" y="0px"
	 viewBox="0 0 659 734" style="enable-background:new 0 0 659 734;" xml:space="preserve">
	<path d="M293.1,365.2l-143.6-82.5c-9.9,9.6-19.8,16.7-29.5,21.4c-9.9,4.7-20.6,7.1-31.6,7c-23.5,0-44.1-8.6-61.8-25.8
		C8.9,268,0,247.8,0,224.6c0-22.8,8.4-42.5,25.1-58.9s36.8-24.6,60.4-24.6c24.2,0,44.5,8,60.9,24.1s24.6,35.9,24.6,59.4
		c0,4.3-0.3,8.6-0.8,12.9c-0.5,4.6-1.2,9.4-2.2,14.4L311,333.4V168.9c-20.9-6.3-37.1-16.6-48.7-31c-11.6-14.4-17.4-31.9-17.4-52.5
		c0-23.8,8.2-44,24.6-60.6S306,0,329.5,0c23.9,0,44,8.3,60.2,24.8s24.4,36.8,24.4,60.6c0,20.2-5.8,37.6-17.4,52.2
		s-28.2,25-49.7,31.3v164.5l145.8-81c-1.3-5.6-2.3-10.6-3-14.9c-0.6-3.9-1-7.9-1-11.9c0-23.5,8.3-43.5,24.9-59.9
		c16.6-16.4,36.8-24.6,60.7-24.6c23.5,0,43.5,8.3,60,24.9s24.7,36.4,24.6,59.6c0,23.8-8.5,44-25.6,60.6s-37.7,24.8-62,24.9
		c-10.4,0-20.7-2.3-30.1-6.7c-9.8-4.5-20.1-11.7-31.1-21.6l-142.8,84.5l142.8,82.5c9.6-9.3,19.6-16.1,29.9-20.6
		c10.2-4.5,21.2-6.7,32.3-6.7c24.2,0,44.7,8.3,61.5,24.9c16.8,16.6,25.1,36.8,25.1,60.6c0,23.2-8,42.9-24.1,59.1
		s-35.9,24.3-59.5,24.3c-24.2,0-44.7-8.1-61.5-24.3s-25.1-35.9-25.1-59.1c0-2.3,0.7-7.5,2-15.4c1-5.3,1.6-9.4,2-12.4L347,400v165
		c21.2,6.3,37.7,16.8,49.5,31.6c11.8,14.7,17.7,32.4,17.7,53c0,23.9-8.1,43.9-24.4,60.2s-36.3,24.3-60.2,24.2
		c-23.6,0-43.6-8.1-60-24.4c-16.4-16.2-24.6-36.3-24.6-60.2c0-20.5,5.8-38.3,17.4-53.2c11.6-14.9,27.8-25.4,48.7-31.3V400
		l-144.1,80c0.3,3,1,7.1,2,12.4c1.3,8,2,13.1,2,15.4c0,23.5-8.3,43.5-24.9,59.9c-16.6,16.4-36.8,24.6-60.6,24.5
		c-23.5,0-43.6-8.4-60.4-25.3C8.4,550,0,530,0,506.8c0-22.8,8.6-42.6,25.8-59.4c17.2-16.7,37.4-25.1,60.6-25.1
		c11,0,21.9,2.3,32,6.7c10.4,4.5,20.8,11.3,31.1,20.6L293.1,365.2z"/>
</svg>