<svg>
	<g id="lightbox_control_buttons">
		<symbol id="close_button" viewBox="0 0 1080 1080">
			<path d="M1080,1080H925.69L540,699.11,159.11,1080H0V925.69L380.87,540,0,159.11V0H159.11L540,380.89,925.69,0H1080V159.11L699.08,540,1080,920.89Z"/>
		</symbol>
		<symbol id="previous_button" viewBox="0 0 867.92 1080">
			<path d="M867.92,1080,0,540,867.92,0Z"/>
		</symbol>
		<symbol id="next_button" viewBox="0 0 867.92 1080">
			<path d="M867.92,540,0,1080V0Z"/>
		</symbol>
	</g>
	<g id="social_media_icons">
		<symbol id="behance_icon" viewBox="0 0 576 512">
			<path d="M232 237.2c31.8-15.2 48.4-38.2 48.4-74 0-70.6-52.6-87.8-113.3-87.8H0v354.4h171.8c64.4 0 124.9-30.9 124.9-102.9 0-44.5-21.1-77.4-64.7-89.7zM77.9 135.9H151c28.1 0 53.4 7.9 53.4 40.5 0 30.1-19.7 42.2-47.5 42.2h-79v-82.7zm83.3 233.7H77.9V272h84.9c34.3 0 56 14.3 56 50.6 0 35.8-25.9 47-57.6 47zm358.5-240.7H376V94h143.7v34.9zM576 305.2c0-75.9-44.4-139.2-124.9-139.2-78.2 0-131.3 58.8-131.3 135.8 0 79.9 50.3 134.7 131.3 134.7 61.3 0 101-27.6 120.1-86.3H509c-6.7 21.9-34.3 33.5-55.7 33.5-41.3 0-63-24.2-63-65.3h185.1c.3-4.2.6-8.7.6-13.2zM390.4 274c2.3-33.7 24.7-54.8 58.5-54.8 35.4 0 53.2 20.8 56.2 54.8H390.4z"/>
		</symbol>
		<symbol id="instagram_icon" viewBox="0 0 448 512">
			<path d="M224.1 141c-63.6 0-114.9 51.3-114.9 114.9s51.3 114.9 114.9 114.9S339 319.5 339 255.9 287.7 141 224.1 141zm0 189.6c-41.1 0-74.7-33.5-74.7-74.7s33.5-74.7 74.7-74.7 74.7 33.5 74.7 74.7-33.6 74.7-74.7 74.7zm146.4-194.3c0 14.9-12 26.8-26.8 26.8-14.9 0-26.8-12-26.8-26.8s12-26.8 26.8-26.8 26.8 12 26.8 26.8zm76.1 27.2c-1.7-35.9-9.9-67.7-36.2-93.9-26.2-26.2-58-34.4-93.9-36.2-37-2.1-147.9-2.1-184.9 0-35.8 1.7-67.6 9.9-93.9 36.1s-34.4 58-36.2 93.9c-2.1 37-2.1 147.9 0 184.9 1.7 35.9 9.9 67.7 36.2 93.9s58 34.4 93.9 36.2c37 2.1 147.9 2.1 184.9 0 35.9-1.7 67.7-9.9 93.9-36.2 26.2-26.2 34.4-58 36.2-93.9 2.1-37 2.1-147.8 0-184.8zM398.8 388c-7.8 19.6-22.9 34.7-42.6 42.6-29.5 11.7-99.5 9-132.1 9s-102.7 2.6-132.1-9c-19.6-7.8-34.7-22.9-42.6-42.6-11.7-29.5-9-99.5-9-132.1s-2.6-102.7 9-132.1c7.8-19.6 22.9-34.7 42.6-42.6 29.5-11.7 99.5-9 132.1-9s102.7-2.6 132.1 9c19.6 7.8 34.7 22.9 42.6 42.6 11.7 29.5 9 99.5 9 132.1s2.7 102.7-9 132.1z"/>
		</symbol>
		<symbol id="twitter_icon" viewBox="0 0 512 512">
			<path d="M459.37 151.716c.325 4.548.325 9.097.325 13.645 0 138.72-105.583 298.558-298.558 298.558-59.452 0-114.68-17.219-161.137-47.106 8.447.974 16.568 1.299 25.34 1.299 49.055 0 94.213-16.568 130.274-44.832-46.132-.975-84.792-31.188-98.112-72.772 6.498.974 12.995 1.624 19.818 1.624 9.421 0 18.843-1.3 27.614-3.573-48.081-9.747-84.143-51.98-84.143-102.985v-1.299c13.969 7.797 30.214 12.67 47.431 13.319-28.264-18.843-46.781-51.005-46.781-87.391 0-19.492 5.197-37.36 14.294-52.954 51.655 63.675 129.3 105.258 216.365 109.807-1.624-7.797-2.599-15.918-2.599-24.04 0-57.828 46.782-104.934 104.934-104.934 30.213 0 57.502 12.67 76.67 33.137 23.715-4.548 46.456-13.32 66.599-25.34-7.798 24.366-24.366 44.833-46.132 57.827 21.117-2.273 41.584-8.122 60.426-16.243-14.292 20.791-32.161 39.308-52.628 54.253z"/>
		</symbol>
		<symbol id="youtube_icon" viewBox="0 0 576 512">
			<path d="M549.655 124.083c-6.281-23.65-24.787-42.276-48.284-48.597C458.781 64 288 64 288 64S117.22 64 74.629 75.486c-23.497 6.322-42.003 24.947-48.284 48.597-11.412 42.867-11.412 132.305-11.412 132.305s0 89.438 11.412 132.305c6.281 23.65 24.787 41.5 48.284 47.821C117.22 448 288 448 288 448s170.78 0 213.371-11.486c23.497-6.321 42.003-24.171 48.284-47.821 11.412-42.867 11.412-132.305 11.412-132.305s0-89.438-11.412-132.305zm-317.51 213.508V175.185l142.739 81.205-142.739 81.201z"/>
		</symbol>
	</g>
	<g id="special_characters">
		<symbol id="divider" viewBox="0 0 659 734">
			<path d="M293.1,365.2l-143.6-82.5c-9.9,9.6-19.8,16.7-29.5,21.4c-9.9,4.7-20.6,7.1-31.6,7c-23.5,0-44.1-8.6-61.8-25.8 C8.9,268,0,247.8,0,224.6c0-22.8,8.4-42.5,25.1-58.9s36.8-24.6,60.4-24.6c24.2,0,44.5,8,60.9,24.1s24.6,35.9,24.6,59.4 c0,4.3-0.3,8.6-0.8,12.9c-0.5,4.6-1.2,9.4-2.2,14.4L311,333.4V168.9c-20.9-6.3-37.1-16.6-48.7-31c-11.6-14.4-17.4-31.9-17.4-52.5 c0-23.8,8.2-44,24.6-60.6S306,0,329.5,0c23.9,0,44,8.3,60.2,24.8s24.4,36.8,24.4,60.6c0,20.2-5.8,37.6-17.4,52.2 s-28.2,25-49.7,31.3v164.5l145.8-81c-1.3-5.6-2.3-10.6-3-14.9c-0.6-3.9-1-7.9-1-11.9c0-23.5,8.3-43.5,24.9-59.9 c16.6-16.4,36.8-24.6,60.7-24.6c23.5,0,43.5,8.3,60,24.9s24.7,36.4,24.6,59.6c0,23.8-8.5,44-25.6,60.6s-37.7,24.8-62,24.9 c-10.4,0-20.7-2.3-30.1-6.7c-9.8-4.5-20.1-11.7-31.1-21.6l-142.8,84.5l142.8,82.5c9.6-9.3,19.6-16.1,29.9-20.6 c10.2-4.5,21.2-6.7,32.3-6.7c24.2,0,44.7,8.3,61.5,24.9c16.8,16.6,25.1,36.8,25.1,60.6c0,23.2-8,42.9-24.1,59.1 s-35.9,24.3-59.5,24.3c-24.2,0-44.7-8.1-61.5-24.3s-25.1-35.9-25.1-59.1c0-2.3,0.7-7.5,2-15.4c1-5.3,1.6-9.4,2-12.4L347,400v165 c21.2,6.3,37.7,16.8,49.5,31.6c11.8,14.7,17.7,32.4,17.7,53c0,23.9-8.1,43.9-24.4,60.2s-36.3,24.3-60.2,24.2 c-23.6,0-43.6-8.1-60-24.4c-16.4-16.2-24.6-36.3-24.6-60.2c0-20.5,5.8-38.3,17.4-53.2c11.6-14.9,27.8-25.4,48.7-31.3V400 l-144.1,80c0.3,3,1,7.1,2,12.4c1.3,8,2,13.1,2,15.4c0,23.5-8.3,43.5-24.9,59.9c-16.6,16.4-36.8,24.6-60.6,24.5 c-23.5,0-43.6-8.4-60.4-25.3C8.4,550,0,530,0,506.8c0-22.8,8.6-42.6,25.8-59.4c17.2-16.7,37.4-25.1,60.6-25.1 c11,0,21.9,2.3,32,6.7c10.4,4.5,20.8,11.3,31.1,20.6L293.1,365.2z"/>
		</symbol> 
	</g>
</svg>